<svg xmlns="http://www.w3.org/2000/svg" width="90.162" height="90.161" viewBox="0 0 90.162 90.161">
  <g id="Aresrewards" transform="translate(-3.388 271.822)">
    <path id="Trazado_312" data-name="Trazado 312" d="M44.469-186.344A43.63,43.63,0,0,1,.888-229.924,43.63,43.63,0,0,1,44.469-273.5a43.629,43.629,0,0,1,43.581,43.58A43.63,43.63,0,0,1,44.469-186.344Zm0-84.984a41.451,41.451,0,0,0-41.4,41.4,41.452,41.452,0,0,0,41.4,41.4,41.451,41.451,0,0,0,41.4-41.4A41.451,41.451,0,0,0,44.469-271.328Z" transform="translate(4 3.182)" fill="#2e4765" stroke="#2e4765" stroke-width="3"/>
    <path id="Trazado_313" data-name="Trazado 313" d="M89.569-184.44l-2.512-6.841a.738.738,0,0,0-.7-.489H76.727a.745.745,0,0,0-.7,1.005l2.564,6.841a.747.747,0,0,0,.7.483h9.581a.742.742,0,0,0,.7-1" transform="translate(-16.613 -19.253)" fill="#2e4765"/>
    <path id="Trazado_314" data-name="Trazado 314" d="M52.367-217.453a9.849,9.849,0,0,1-10.614-10.613,9.879,9.879,0,0,1,9.016-9.012,9.845,9.845,0,0,1,10.613,10.611,9.878,9.878,0,0,1-9.014,9.014m18.791,3.011L59.143-247.177a8.05,8.05,0,0,0-15.113,0L26.75-200.1H38.13l3.145-8.721a1.652,1.652,0,0,1,1.558-1.094H68a3.369,3.369,0,0,0,3.161-4.529" transform="translate(-3.099 -2.596)" fill="#2e4765"/>
    <path id="Trazado_315" data-name="Trazado 315" d="M57.971-214.236l-4.516-4.515a1.178,1.178,0,0,1,0-1.666l4.516-4.517a1.181,1.181,0,0,1,1.666,0l4.516,4.517a1.183,1.183,0,0,1,0,1.666l-4.516,4.515a1.177,1.177,0,0,1-1.666,0" transform="translate(-10.335 -10.055)" fill="#2e4765"/>
  </g>
</svg>
