<svg xmlns="http://www.w3.org/2000/svg" width="94.097" height="94.108" viewBox="0 0 94.097 94.108">
  <g id="bitcoin" transform="translate(-959.291 -107.29)">
    <g id="Layer_x0020_1" transform="translate(959.291 107.289)">
      <g id="_1421344023328" transform="translate(0 0.001)">
        <path id="Trazado_316" data-name="Trazado 316" d="M92.689,58.437A47.037,47.037,0,1,1,58.424,1.409,47.041,47.041,0,0,1,92.689,58.437h0Z" transform="translate(0.001 -0.001)" fill="#f7931a"/>
        <path id="Trazado_317" data-name="Trazado 317" d="M1040.372,736.707c.937-6.262-3.831-9.628-10.349-11.873l2.114-8.482-5.163-1.287-2.059,8.259c-1.357-.339-2.751-.658-4.137-.974l2.074-8.314-5.16-1.286-2.116,8.479c-1.123-.256-2.226-.508-3.3-.775l.006-.027-7.12-1.778-1.373,5.515s3.831.878,3.75.932a2.749,2.749,0,0,1,2.406,3l-2.409,9.663a4.2,4.2,0,0,1,.537.172c-.172-.043-.356-.089-.546-.135l-3.377,13.537a1.879,1.879,0,0,1-2.366,1.227c.052.075-3.753-.937-3.753-.937l-2.564,5.911,6.719,1.675c1.25.314,2.475.642,3.681.95l-2.137,8.579,5.157,1.287,2.116-8.488c1.409.382,2.777.735,4.115,1.068l-2.109,8.448,5.164,1.286,2.136-8.563c8.8,1.666,15.425.994,18.212-6.969,2.246-6.412-.112-10.11-4.744-12.522,3.374-.778,5.915-3,6.593-7.581h0Zm-11.8,16.543c-1.6,6.412-12.391,2.946-15.891,2.077l2.835-11.366c3.5.874,14.724,2.6,13.056,9.29Zm1.6-16.636c-1.456,5.833-10.441,2.869-13.356,2.143l2.571-10.309c2.914.727,12.3,2.082,10.785,8.166Z" transform="translate(-972.575 -696.357)" fill="#fff"/>
      </g>
    </g>
  </g>
</svg>
