<?xml version="1.0" encoding="UTF-8"?>
<svg width="330px" height="330px" viewBox="0 0 330 330" version="1.1" xmlns="http://www.w3.org/2000/svg" xmlns:xlink="http://www.w3.org/1999/xlink">
    <!-- Generator: Sketch 55.1 (78136) - https://sketchapp.com -->
    <title>BSV</title>
    <desc>Created with Sketch.</desc>
    <g id="Page-1" stroke="none" stroke-width="1" fill="none" fill-rule="evenodd">
        <g id="Desktop-HD" transform="translate(-555.000000, -566.000000)" fill="#E8B321" fill-rule="nonzero">
            <path d="M720,896 C628.873016,896 555,822.126984 555,731 C555,639.873016 628.873016,566 720,566 C811.126984,566 885,639.873016 885,731 C885,822.126984 811.126984,896 720,896 Z M778.868217,721.822222 C778.868217,721.822222 801.139535,711.333333 797.209302,683.8 C794.589147,660.2 765.767442,651.022222 743.496124,648.4 L743.496124,613 L721.224806,613 L721.224806,648.4 L706.813953,648.4 L706.813953,613 L684.542636,613 L684.542636,648.4 L640,648.4 L640,672 L657.031008,672 C664.891473,672 667.511628,674.622222 667.511628,679.866667 L667.511628,778.2 C667.511628,786.066667 663.581395,788.688889 658.341085,788.688889 L642.620155,788.688889 L641.310078,812.288889 L684.542636,812.288889 L684.542636,849 L706.813953,849 L706.813953,812.288889 L721.224806,812.288889 L721.224806,849 L743.496124,849 L743.496124,812.288889 L748.736434,812.288889 C794.589147,812.288889 809,790 809,759.844444 C809,729.688889 778.868217,721.822222 778.868217,721.822222 Z M706,674 L721.891892,674 C732.486487,674 755,675.30303 755,693.545455 C755,710.484848 743.081081,715.69697 735.135135,717 L706,717 L706,674 Z M731.782609,788 L707,788 L707,740 L735.695652,740 C742.217391,740 767,742.666667 767,760 C767,777.333333 755.260869,788 731.782609,788 Z" id="BSV"></path>
        </g>
    </g>
</svg>