<svg xmlns="http://www.w3.org/2000/svg" width="81.76" height="64.896" viewBox="0 0 81.76 64.896">
  <g id="Fluctuations" transform="translate(-143.357 -306.359)">
    <path id="Icon_ionic-ios-arrow-round-up" data-name="Icon ionic-ios-arrow-round-up" d="M52.72,30.849a2.877,2.877,0,0,1-4.052.022L35.258,17.5V68.437a2.863,2.863,0,0,1-5.725,0V17.5L16.122,30.893a2.9,2.9,0,0,1-4.052-.022,2.851,2.851,0,0,1,.022-4.03L30.369,8.7h0a3.215,3.215,0,0,1,.9-.595,2.732,2.732,0,0,1,1.1-.22,2.87,2.87,0,0,1,2,.815L52.654,26.841A2.8,2.8,0,0,1,52.72,30.849Z" transform="translate(133.065 299.228)" fill="#2e4765" stroke="#2e4765" stroke-width="1.5"/>
    <path id="Icon_ionic-ios-arrow-round-down" data-name="Icon ionic-ios-arrow-round-down" d="M52.72,48.3a2.878,2.878,0,0,0-4.052-.022L35.258,61.648V10.716a2.863,2.863,0,0,0-5.725,0V61.648L16.122,48.259a2.9,2.9,0,0,0-4.052.022,2.851,2.851,0,0,0,.022,4.03L30.369,70.456h0a3.215,3.215,0,0,0,.9.595,2.732,2.732,0,0,0,1.1.22,2.87,2.87,0,0,0,2-.815L52.654,52.311A2.8,2.8,0,0,0,52.72,48.3Z" transform="translate(170.837 299.234)" fill="#2e4765" stroke="#2e4765" stroke-width="1.5"/>
  </g>
</svg>
