<?xml version="1.0" encoding="UTF-8"?>
<svg width="60px" height="60px" viewBox="0 0 60 60" version="1.1" xmlns="http://www.w3.org/2000/svg" xmlns:xlink="http://www.w3.org/1999/xlink">
    <!-- Generator: Sketch 52.3 (67297) - http://www.bohemiancoding.com/sketch -->
    <title>Group</title>
    <desc>Created with Sketch.</desc>
    <g id="Page-1" stroke="none" stroke-width="1" fill="none" fill-rule="evenodd">
        <g id="Group">
            <circle id="Combined-Shape" fill="#385F9D" cx="30" cy="30" r="30"></circle>
            <path d="M27.497783,40.788371 L44.3502521,40.788371 C44.4212415,40.788371 44.4919151,40.7978198 44.5604113,40.8164687 C44.9867211,40.9325364 45.2382221,41.3722203 45.1221543,41.7985302 L43.6351929,47.2600514 C43.5403875,47.6082659 43.2241803,47.8498922 42.8632906,47.8498922 L24.2212875,47.8498922 L17.044361,47.8498922 L21.3489034,33.2390866 L16.8,34.6750219 L17.7409801,31.2385675 L22.3652117,29.7894556 L28.497753,8.97391666 C28.5980073,8.63362588 28.9103906,8.4 29.2651423,8.4 L35.9962937,8.4 C36.4381215,8.4 36.7962937,8.7581722 36.7962937,9.2 C36.7962937,9.27673857 36.7852524,9.35307794 36.7635094,9.42667173 L31.6026314,26.8946925 L36.2849648,25.427373 L35.3867107,28.8078246 L30.5900526,30.3219677 L27.497783,40.788371 Z" id="Combined-Shape" fill="#FFFFFF"></path>
        </g>
    </g>
</svg>