<svg xmlns="http://www.w3.org/2000/svg" width="79.882" height="79.884" viewBox="0 0 79.882 79.884">
  <g id="myprediction" transform="translate(-567.776 -295.432)">
    <g id="Grupo_2104" data-name="Grupo 2104" transform="translate(151.323 143.69)">
      <path id="Trazado_5543" data-name="Trazado 5543" d="M445.029,191.953a2.16,2.16,0,0,1-1.2-3.958l17.1-11.4,12.16,7.6,21.6-14.8a2.16,2.16,0,0,1,2.354,3.622l-23.911,16.3-12.131-7.582-14.78,9.854A2.151,2.151,0,0,1,445.029,191.953Z" transform="translate(-9.442 -6.085)" fill="#2e4765" stroke="#2e4765" stroke-width="1.6"/>
      <path id="Trazado_5544" data-name="Trazado 5544" d="M448.635,229.826a2.16,2.16,0,0,1-2.16-2.16V214.357a2.16,2.16,0,0,1,4.321,0v13.309A2.16,2.16,0,0,1,448.635,229.826Z" transform="translate(-10.773 -22)" fill="#2e4765" stroke="#2e4765" stroke-width="1.6"/>
      <path id="Trazado_5545" data-name="Trazado 5545" d="M469.9,225.834a2.16,2.16,0,0,1-2.161-2.16v-20.14a2.16,2.16,0,1,1,4.32,0v20.14A2.16,2.16,0,0,1,469.9,225.834Z" transform="translate(-18.616 -18.008)" fill="#2e4765" stroke="#2e4765" stroke-width="1.6"/>
      <path id="Trazado_5546" data-name="Trazado 5546" d="M489.526,228.5a2.16,2.16,0,0,1-2.16-2.16V210.75a2.16,2.16,0,1,1,4.32,0v15.586A2.16,2.16,0,0,1,489.526,228.5Z" transform="translate(-25.854 -20.669)" fill="#2e4765" stroke="#2e4765" stroke-width="1.6"/>
      <path id="Trazado_5547" data-name="Trazado 5547" d="M508.769,224.06a2.16,2.16,0,0,1-2.16-2.16V198.723a2.16,2.16,0,0,1,4.32,0V221.9A2.16,2.16,0,0,1,508.769,224.06Z" transform="translate(-32.951 -16.234)" fill="#2e4765" stroke="#2e4765" stroke-width="1.6"/>
      <path id="Trazado_5548" data-name="Trazado 5548" d="M488.708,177.372a35.419,35.419,0,1,1-15.393-16.7,1.893,1.893,0,0,0,1.7.074l.041-.019a1.875,1.875,0,0,0,.149-3.338,39.163,39.163,0,1,0,16.954,18.438,1.866,1.866,0,0,0-2.741-.778l-.031.021A1.864,1.864,0,0,0,488.708,177.372Z" transform="translate(0 0)" fill="#2e4765" stroke="#2e4765" stroke-width="1.6"/>
    </g>
  </g>
</svg>
