<svg xmlns="http://www.w3.org/2000/svg" width="90.423" height="90.529" viewBox="0 0 90.423 90.529">
  <g id="prediction" transform="translate(-139.128 -113.221)">
    <g id="Grupo_2098" data-name="Grupo 2098" transform="translate(139.128 113.221)">
      <g id="Grupo_2032" data-name="Grupo 2032" transform="translate(13.983 0)">
        <path id="Trazado_5307" data-name="Trazado 5307" d="M2759.017-558.346q-6.889,6.857-13.754,13.738c-.749.75-1.528,1.474-2.239,2.258a2.8,2.8,0,0,0,1.363,4.635,2.9,2.9,0,0,0,2.942-.958q7.828-7.854,15.681-15.685c.263-.263.48-.571.934-.584.646-.019,1.29-.111,1.935-.175q5.886-.6,11.771-1.189a2.86,2.86,0,0,0,1.789-.859q5.03-5.029,10.058-10.061a2.757,2.757,0,0,0,.849-1.739,2.918,2.918,0,0,0-2.843-3.121c-3.14-.236-6.281-.492-9.423-.716-.448-.032-.6-.19-.627-.633-.224-3.113-.484-6.223-.708-9.335a2.864,2.864,0,0,0-1.866-2.738,2.766,2.766,0,0,0-3.134.787q-4.9,4.909-9.811,9.809a3.185,3.185,0,0,0-.993,2c-.439,4.422-.905,8.843-1.324,13.267A1.928,1.928,0,0,1,2759.017-558.346Zm6.422-2.99c.354-3.186.665-6.376,1-9.563.024-.225-.03-.478.161-.667l4.963-4.959c.152,2.014.3,3.8.421,5.592.17,2.565,1.035,3.441,3.585,3.6.911.058,1.821.128,2.729.2s1.8.148,2.89.238a38.943,38.943,0,0,0-2.931,2.962,6.249,6.249,0,0,1-5.049,2.451c-2.375.069-4.742.431-7.111.675C2765.675-560.762,2765.369-560.7,2765.439-561.335Z" transform="translate(-2713.905 585.708)" fill="#2e4765"/>
        <path id="Trazado_5308" data-name="Trazado 5308" d="M2661.8-519.7a2.781,2.781,0,0,0,1.953-2.745,2.873,2.873,0,0,0-2.415-2.762,31.088,31.088,0,0,0-14.348-.342,31.221,31.221,0,0,0-24.752,30.524,29.575,29.575,0,0,0,.636,6.4,31.248,31.248,0,0,0,37.5,24.015,31.288,31.288,0,0,0,23.23-38.36,2.884,2.884,0,0,0-3.575-2.291,2.866,2.866,0,0,0-1.9,3.712,26.346,26.346,0,0,1,.421,11.031,25.563,25.563,0,0,1-30.609,20.438,25.548,25.548,0,0,1-19.1-31.894,25.572,25.572,0,0,1,30.959-17.783A3.43,3.43,0,0,0,2661.8-519.7Z" transform="translate(-2622.24 540.277)" fill="#2e4765"/>
        <path id="Trazado_5309" data-name="Trazado 5309" d="M2699.791-460.324c.44.02.883.076,1.322.054a2.669,2.669,0,0,0,2.457-1.724,2.685,2.685,0,0,0-.564-3.022,3.346,3.346,0,0,0-2.486-.943,16.984,16.984,0,0,0-17.937,19,16.938,16.938,0,0,0,26.231,12.048,16.521,16.521,0,0,0,7.561-14.015,2.823,2.823,0,0,0-2.445-2.9,2.825,2.825,0,0,0-3.116,2.152,5.627,5.627,0,0,0-.094,1.139,11.366,11.366,0,0,1-13.68,10.585,11.388,11.388,0,0,1-8.9-12.185A11.361,11.361,0,0,1,2699.791-460.324Z" transform="translate(-2668.224 494.281)" fill="#2e4765"/>
      </g>
      <path id="Trazado_5310" data-name="Trazado 5310" d="M2645.726-549.078a38.571,38.571,0,0,1,1.094,9.935,38.686,38.686,0,0,1-38.328,37.806,38.621,38.621,0,0,1-38.82-38.577,38.621,38.621,0,0,1,38.577-38.577,38.485,38.485,0,0,1,9.3,1.136,3.281,3.281,0,0,0,3.821-1.892l.027-.061a3.269,3.269,0,0,0-2.2-4.455,45.087,45.087,0,0,0-10.7-1.343,45.311,45.311,0,0,0-45.444,44.63,45.241,45.241,0,0,0,46.695,45.73c23.329-.762,43.187-20.865,43.678-44.2a45.171,45.171,0,0,0-1.282-11.718,3.282,3.282,0,0,0-4.342-2.287l-.062.023A3.275,3.275,0,0,0,2645.726-549.078Z" transform="translate(-2563.057 585.249)" fill="#2e4765"/>
    </g>
  </g>
</svg>
