<svg xmlns="http://www.w3.org/2000/svg" width="85.12" height="78.267" viewBox="0 0 85.12 78.267">
  <g id="Rules" transform="translate(-366.125 -296.238)">
    <g id="Grupo_2100" data-name="Grupo 2100" transform="translate(366.125 296.238)">
      <g id="Grupo_2028" data-name="Grupo 2028" transform="translate(0 0)">
        <path id="Trazado_5300" data-name="Trazado 5300" d="M230.425-242.257c.474-6.044-1.068-4.9,3.947-5.117a65.536,65.536,0,0,1,7.506.031c1.461.1,2.593-.177,3.307-1.422l0-.006a3.216,3.216,0,0,0,.443-1.6V-258.7a21.464,21.464,0,0,0-.51-5.058l0-.01a9.874,9.874,0,0,0-5.6-6.754,9.679,9.679,0,0,0-4.462-.848c-.777.016-1.555.035-2.332.035q-25.3,0-50.59,0a9.336,9.336,0,0,0-9.356,7.928,8,8,0,0,0-.092,1.115c-.223,9.22-.042,18.443-.207,27.661-.112,6.31-.062,12.617-.128,18.926a1.406,1.406,0,0,1-1.4,1.389c-2.5.013-5,0-7.5.006-2.044,0-2.927.893-2.937,2.96s-.018,4.112,0,6.167a12.122,12.122,0,0,0,12.571,12.064c.59-.026,1.179-.029,1.769-.029q21.752,0,43.505,0a12.436,12.436,0,0,0,11.95-10.324,23.694,23.694,0,0,0,.1-5.625Zm-23.66,44.1q-16.536,0-33.071.01a7.692,7.692,0,0,1-6.623-2.964,7.285,7.285,0,0,1-1.479-4.412c-.015-1.027.036-2.057-.02-3.082-.033-.616.2-.707.749-.705q11.038.027,22.075.012c5.415,0,10.83.012,16.244-.016.665,0,.815.184.814.824a21.786,21.786,0,0,0,.46,6.448,15.6,15.6,0,0,0,1.842,3.885Zm18.675-61.2q.018,26.675,0,53.35a7.349,7.349,0,0,1-3.968,6.981,7.287,7.287,0,0,1-10.661-5.828c-.136-2.159-.051-4.333-.06-6.5-.008-2.287-.962-3.257-3.229-3.257q-14.629,0-29.259.012c-.646,0-.9-.085-.9-.831q.2-23.006.331-46.013a4.546,4.546,0,0,1,2.488-4.441,5,5,0,0,1,2.347-.449q21.714,0,43.429,0c.189,0,.378.025.669.045C225.38-264.08,225.44-261.72,225.441-259.354Zm14.357,7.007q-4.25-.024-8.5,0c-.466,0-.541-.171-.537-.577.019-1.528.008-3.055.008-4.583h.014c0-1.416-.041-2.834.009-4.249a4.692,4.692,0,0,1,4.86-4.548,4.679,4.679,0,0,1,4.629,4.53c.064,2.971.014,5.944.034,8.917C240.319-252.447,240.2-252.344,239.8-252.346Z" transform="translate(-160.512 271.376)" fill="#2e4765"/>
        <path id="Trazado_5301" data-name="Trazado 5301" d="M222.736-224.239c-4.888-.014-9.776-.005-14.664-.005H201.49c-2.75,0-5.5-.018-8.249.012a2.575,2.575,0,0,0-2.638,2.712c.038,1.6,1.224,2.592,3.126,2.593q14.332,0,28.662,0a5.384,5.384,0,0,0,1.075-.1,2.567,2.567,0,0,0,2.064-2.481A2.6,2.6,0,0,0,222.736-224.239Z" transform="translate(-167.585 260.297)" fill="#2e4765"/>
        <path id="Trazado_5302" data-name="Trazado 5302" d="M192.988-238.138a2.633,2.633,0,0,0-2.379,2.807,2.647,2.647,0,0,0,2.875,2.492q7.291.013,14.582,0h6.166c2.832,0,5.666.012,8.5-.005a2.627,2.627,0,0,0,2.794-2.819,2.669,2.669,0,0,0-2.957-2.5q-14.5-.007-29,0A5.118,5.118,0,0,0,192.988-238.138Z" transform="translate(-167.586 263.567)" fill="#2e4765"/>
        <path id="Trazado_5303" data-name="Trazado 5303" d="M222.569-210.349c-4.8-.013-9.607,0-14.412,0q-7.122,0-14.244,0a9.458,9.458,0,0,0-1,.04,2.548,2.548,0,0,0-2.3,2.35,2.581,2.581,0,0,0,1.877,2.789,5.806,5.806,0,0,0,1.405.107q14.162.009,28.323,0a8.927,8.927,0,0,0,1.08-.044,2.558,2.558,0,0,0,2.208-2.26C225.7-209.138,224.529-210.344,222.569-210.349Z" transform="translate(-167.587 257.031)" fill="#2e4765"/>
        <path id="Trazado_5304" data-name="Trazado 5304" d="M193.468-246.754c2.22.012,4.44,0,6.659,0,2.191,0,4.384.008,6.575,0a2.681,2.681,0,0,0,2.92-2.627,2.671,2.671,0,0,0-2.811-2.673q-6.7-.049-13.4,0a2.622,2.622,0,0,0-2.808,2.732A2.616,2.616,0,0,0,193.468-246.754Z" transform="translate(-167.585 266.839)" fill="#2e4765"/>
      </g>
    </g>
  </g>
</svg>
