<svg xmlns="http://www.w3.org/2000/svg" width="113.862" height="82.738" viewBox="0 0 113.862 82.738">
  <g id="testcoin" transform="translate(-345.743 -112.978)">
    <g id="Grupo_2099" data-name="Grupo 2099" transform="translate(346 113.221)">
      <path id="Trazado_4659" data-name="Trazado 4659" d="M364.859,434.986a6.88,6.88,0,0,0-3.076-6.082,20.948,20.948,0,0,0-6.11-2.843,60.328,60.328,0,0,0-15.688-2.4c-.831-.031-1.088-.239-1.083-1.147.04-7.573.008-15.147.031-22.721a7.168,7.168,0,0,0-2.637-5.776,16.7,16.7,0,0,0-5.256-2.835,54.1,54.1,0,0,0-15.6-2.848,66.776,66.776,0,0,0-22.664,2.194,17.665,17.665,0,0,0-7.439,3.838,5.658,5.658,0,0,0-1.972,4.425c.1,3.326.149,6.653.3,9.976.049,1.078-.179,1.409-1.223,1.068a8.125,8.125,0,0,0-1.86-.233c-12.87-1.035-24.834,7.817-28.082,20.79a24.825,24.825,0,0,0-.687,10.862l.031.2a28.01,28.01,0,0,0,10.168,18.169,26.1,26.1,0,0,0,32.827.306c.369-.287.673-.685,1.254-.544a63.39,63.39,0,0,0,13.368,1.553c.357.01.609.052.732.5a7.111,7.111,0,0,0,3.187,3.949,21.056,21.056,0,0,0,6.795,2.915,69.98,69.98,0,0,0,33.6.186,20.99,20.99,0,0,0,8.357-3.706,6.706,6.706,0,0,0,2.724-5.691Q364.751,447.036,364.859,434.986ZM334.395,410.4a3.07,3.07,0,0,1-1.65,2.642,22.025,22.025,0,0,1-6.9,2.634,68.244,68.244,0,0,1-29.579.075,4.006,4.006,0,0,1-1.68-.787,23.74,23.74,0,0,0-5.646-3.306c-.465-.193-.728-.389-.719-.962.028-1.908.011-3.816.011-5.509a68.137,68.137,0,0,0,46.172-.334C334.407,406.6,334.442,408.5,334.395,410.4Zm-45.61-12.949A15.675,15.675,0,0,1,294,395.081a60.772,60.772,0,0,1,19.465-2.117,53.042,53.042,0,0,1,15.858,2.6,13.653,13.653,0,0,1,3.857,1.928c1.235.938,1.237,1.344-.034,2.276a17.933,17.933,0,0,1-6.181,2.647,66.032,66.032,0,0,1-17.4,1.892,54.011,54.011,0,0,1-16.76-2.559,13.327,13.327,0,0,1-4.043-2.044C287.624,398.807,287.62,398.346,288.785,397.455ZM278.645,460.91c-12.394.028-22.5-10.422-22.528-23.3-.029-12.834,9.972-23.3,22.335-23.368,12.451-.07,22.63,10.393,22.658,23.288C301.137,450.368,291.034,460.883,278.645,460.91Zm30.41-4.625a72.3,72.3,0,0,1-9.548-.954,29.44,29.44,0,0,0,4.113-7.27c.157-.422.45-.416.8-.4,1.581.088,3.163.183,4.745.229.491.014.615.2.621.675.03,2.332.063,4.665.154,7C309.969,456.348,309.583,456.306,309.055,456.285Zm-3.519-20.738c-.029-.6.109-.808.707-.748a22.191,22.191,0,0,0,2.641.121c.623-.012.711.289.7.827-.027,1.143-.008,2.287-.008,3.43h.147c0,1.106-.035,2.213.013,3.316.027.625-.183.794-.754.748-1.1-.089-2.2-.153-3.3-.168-.537-.008-.6-.227-.5-.7A27.533,27.533,0,0,0,305.536,435.547Zm7.295-6.726a6.046,6.046,0,0,1-4.732,1.406c-1.062-.106-2.254.162-3.165-.259-.965-.446-.813-1.905-1.3-2.857s-.849-1.944-1.331-2.883-1.035-1.816-1.6-2.791c11.471,1.042,22.761,1.015,33.645-3.745,0,1.8-.025,3.583.011,5.368.017.839-.536.663-.973.677a60.836,60.836,0,0,0-11.384,1.414C318.765,425.881,315.484,426.688,312.831,428.822Zm2,4.171a18.711,18.711,0,0,1,7.211-3.009,64.132,64.132,0,0,1,15.368-1.614c5.93.125,12.273.563,18.381,2.744a13,13,0,0,1,3.554,1.8c1.21.917,1.219,1.293.03,2.2a15.828,15.828,0,0,1-5.314,2.441,62.22,62.22,0,0,1-19.7,2.116,53.147,53.147,0,0,1-15.015-2.36,13.289,13.289,0,0,1-4.534-2.292C313.841,434.2,313.832,433.768,314.831,432.993Zm44.358,28.251a18.663,18.663,0,0,1-6.725,2.765,65.648,65.648,0,0,1-31.519-.308,16.616,16.616,0,0,1-5.265-2.288,2.51,2.51,0,0,1-1.239-2.366c.077-1.869.021-3.744.021-5.441a67.631,67.631,0,0,0,45.87-.329c0,1.96-.029,4.061.013,6.162A2.069,2.069,0,0,1,359.189,461.243Zm1.056-14.577c-.119.919-.807,1.332-1.456,1.751a21.262,21.262,0,0,1-7.422,2.784,66.657,66.657,0,0,1-30.865-.578,17.37,17.37,0,0,1-5.269-2.273,2,2,0,0,1-.982-1.881c.039-1.986-.032-3.975-.052-5.962,0-.061.053-.122.108-.242,7.317,3.374,15.1,4.132,22.961,4.1s15.647-.812,23.124-4.328C360.306,442.307,360.529,444.485,360.245,446.667Z" transform="translate(-251.505 -388.191)" fill="#2e4765" stroke="#2e4765" stroke-width="0.5"/>
      <path id="Trazado_4660" data-name="Trazado 4660" d="M322.225,492.381a4.171,4.171,0,0,1,3.928,3.793c.188,1.9,1.173,2.874,2.691,2.671,1.456-.194,2.194-1.391,1.969-3.186a8.658,8.658,0,0,0-5.6-7.349c-.536-.224-.761-.426-.784-1.036-.063-1.673-1.019-2.668-2.394-2.629-1.345.038-2.229,1-2.282,2.625a.878.878,0,0,1-.711.963,8.49,8.49,0,0,0-4.4,3.489,8.865,8.865,0,0,0,7.45,13.673,4.023,4.023,0,0,1,4.076,4.186,4.14,4.14,0,0,1-3.976,4.092,4.184,4.184,0,0,1-4.312-4.008c-.142-1.643-1.091-2.55-2.553-2.439-1.356.1-2.144,1.143-2.069,3.3a8.034,8.034,0,0,0,4.424,6.6c1.468.754,2.309,1.41,2.139,3.218a2.127,2.127,0,0,0,2.287,2.083,2.287,2.287,0,0,0,2.281-2,3.741,3.741,0,0,0,.053-1.14c-.13-.891.211-1.315,1.066-1.668a8.65,8.65,0,0,0,5.245-9.453,8.785,8.785,0,0,0-7.672-7.387,11.419,11.419,0,0,1-2.381-.3,4.164,4.164,0,0,1-2.793-4.592A4.238,4.238,0,0,1,322.225,492.381Z" transform="translate(-294.728 -454.46)" fill="#2e4765" stroke="#2e4765" stroke-width="0.5"/>
    </g>
  </g>
</svg>
